<svg width="13" height="14" viewBox="0 0 13 14" fill="none" xmlns="http://www.w3.org/2000/svg">
<path d="M3.96507 1.82324C3.91115 1.82324 3.86141 1.8551 3.8391 1.90523C3.81632 1.95489 3.82469 2.01346 3.86048 2.05468L6.37014 4.97488C6.39663 5.00533 6.43475 5.02314 6.47473 5.02314C6.5147 5.02314 6.55282 5.0058 6.57978 4.97535L9.11686 2.05515C9.15265 2.01392 9.16149 1.95536 9.13871 1.90523C9.11593 1.8551 9.06666 1.82324 9.01181 1.82324H3.96507Z" fill="#C4C4C4"/>
<path d="M6.95015 7.74253C6.95015 7.51296 7.03336 7.29089 7.1849 7.11895L12.8824 0.659656C12.9856 0.542998 13.0107 0.37621 12.9475 0.233784C12.8838 0.0913587 12.7434 0 12.5886 0H0.393623C0.238832 0 0.0984512 0.0913587 0.0347685 0.233784C-0.0289142 0.37621 -0.00381299 0.54253 0.0993809 0.659188L5.7862 7.11988C5.93681 7.29089 6.02001 7.51202 6.02048 7.74065L6.02466 11.2427C6.02466 11.4915 5.92705 11.7304 5.75273 11.9061C5.57842 12.0823 5.34182 12.1812 5.09499 12.1812H2.77266C2.25948 12.1812 1.84299 12.6009 1.84299 13.1182H11.1397C11.1397 12.6009 10.7232 12.1812 10.2101 12.1812H7.88401C7.37083 12.1812 6.9548 11.7623 6.95434 11.2455L6.95015 7.74253ZM10.9724 0.937012C11.0472 0.937012 11.1146 0.981051 11.1453 1.04945C11.1755 1.11785 11.1634 1.19844 11.1142 1.25466L6.62756 6.3417C6.59176 6.38246 6.54017 6.40588 6.48578 6.40588C6.43186 6.40588 6.38026 6.38246 6.34447 6.3417L1.86576 1.25466C1.81649 1.19844 1.8044 1.11832 1.83462 1.04945C1.8653 0.981051 1.93316 0.937012 2.00754 0.937012H10.9724Z" fill="#C4C4C4"/>
</svg>
