<svg width="16" height="14" viewBox="0 0 16 14" fill="none" xmlns="http://www.w3.org/2000/svg">
<path d="M2.55386 6.04366V6.34735H1.73438V1.97915C1.73438 1.38969 2.2144 0.909668 2.80386 0.909668H13.0299C13.6193 0.909668 14.0993 1.38969 14.0993 1.97915V6.34735H13.2799V6.04366C13.2799 5.54732 12.9191 5.207 12.5057 5.00444C12.086 4.79881 11.5481 4.69799 11.0369 4.69799H10.7071C10.1153 4.69799 9.57952 4.8218 9.18238 5.04317C8.78893 5.26247 8.49154 5.60491 8.49154 6.04366V6.34735H7.34218V6.04366C7.34218 5.54732 6.98138 5.207 6.56799 5.00444C6.14831 4.79881 5.61043 4.69799 5.09927 4.69799H4.7694C4.17759 4.69799 3.64183 4.8218 3.2447 5.04317C2.85125 5.26247 2.55386 5.60491 2.55386 6.04366Z" stroke="#C4C4C4" stroke-width="0.5"/>
<path d="M10.7072 5.85767H11.037C11.4277 5.85767 11.7279 5.93414 11.9237 6.01658C12.0165 6.05566 12.0814 6.09419 12.1202 6.12301V6.34728H9.65137V6.11832C9.68729 6.09051 9.74837 6.05285 9.83732 6.01447C10.0252 5.93338 10.3177 5.85767 10.7072 5.85767Z" stroke="#C4C4C4" stroke-width="0.5"/>
<path d="M4.76942 5.85767H5.09929C5.48998 5.85767 5.79018 5.93414 5.98597 6.01658C6.07879 6.05566 6.14368 6.09419 6.18246 6.12301V6.34728H3.71362V6.11832C3.74954 6.09051 3.81063 6.05285 3.89958 6.01447C4.08749 5.93338 4.37999 5.85767 4.76942 5.85767Z" stroke="#C4C4C4" stroke-width="0.5"/>
<path d="M14.8441 8.82162H0.989539C0.945686 8.82162 0.909668 8.7856 0.909668 8.74174V7.5872C0.909668 7.54334 0.945686 7.50732 0.989539 7.50732H14.8441C14.888 7.50732 14.924 7.54334 14.924 7.5872V8.74174C14.924 8.7856 14.888 8.82162 14.8441 8.82162Z" stroke="#C4C4C4" stroke-width="0.5"/>
<path d="M14.924 9.7312H0.909668V12.615H3.21357V12.3702C3.21357 12.1234 3.29207 11.8958 3.44494 11.7269C3.59947 11.5561 3.817 11.4604 4.06064 11.4604H11.773C12.0167 11.4604 12.2342 11.5561 12.3887 11.7269C12.5416 11.8958 12.6201 12.1234 12.6201 12.3702V12.615H14.9231L14.924 9.7312Z" stroke="#C4C4C4" stroke-width="0.5"/>
<path d="M14.7591 6.61227V6.82354L14.9675 6.85877C15.3171 6.91789 15.5838 7.22237 15.5838 7.58704V8.74158C15.5838 8.89456 15.5373 9.03643 15.4576 9.15453L15.3488 9.31563L15.4781 9.46077C15.5448 9.53558 15.5838 9.62945 15.5838 9.7312V12.865C15.5838 13.0907 15.3998 13.2747 15.1741 13.2747H12.4328C12.3242 13.2747 12.2 13.23 12.1047 13.1496C12.0118 13.0712 11.9604 12.9721 11.9604 12.865V12.3702V12.1202H11.7104H4.12339H3.87339V12.3702V12.865C3.87339 12.9721 3.82197 13.0712 3.72912 13.1496C3.63382 13.23 3.50964 13.2747 3.40097 13.2747H0.659742C0.433966 13.2747 0.25 13.0907 0.25 12.865V9.7312C0.25 9.62945 0.289039 9.53558 0.355707 9.46077L0.485039 9.31563L0.376236 9.15453C0.296479 9.03643 0.25 8.89456 0.25 8.74158V7.58704C0.25 7.22237 0.51668 6.91789 0.866356 6.85877L1.07468 6.82354V6.61227V1.97923C1.07468 1.02592 1.8506 0.25 2.8039 0.25H13.0299C13.9832 0.25 14.7591 1.02592 14.7591 1.97923V6.61227ZM14.3494 6.84742H14.5994V6.59742V1.97923C14.5994 1.11362 13.8955 0.409742 13.0299 0.409742H2.8039C1.9383 0.409742 1.23442 1.11362 1.23442 1.97923V6.59742V6.84742H1.48442H2.8039H3.0539V6.59742V6.04373C3.0539 5.8577 3.179 5.65231 3.48817 5.47998C3.79366 5.3097 4.24067 5.19807 4.76944 5.19807H5.09931C5.55417 5.19807 6.01275 5.28923 6.34803 5.45351C6.68958 5.62087 6.84223 5.82837 6.84223 6.04373V6.59742V6.84742H7.09223H8.74158H8.99158V6.59742V6.04373C8.99158 5.8577 9.11668 5.65231 9.42585 5.47998C9.73134 5.3097 10.1784 5.19807 10.7071 5.19807H11.037C11.4919 5.19807 11.9504 5.28923 12.2857 5.45351C12.6273 5.62087 12.7799 5.82837 12.7799 6.04373V6.59742V6.84742H13.0299H14.3494ZM12.3702 6.84742H12.6202V6.59742V6.04373C12.6202 5.94477 12.5692 5.87226 12.5443 5.84055C12.5127 5.80025 12.4738 5.76459 12.4342 5.73385C12.3541 5.67155 12.2465 5.61013 12.1177 5.5559C11.8583 5.44669 11.4919 5.35781 11.037 5.35781H10.7071C10.2539 5.35781 9.8935 5.44579 9.63918 5.55553C9.51295 5.61 9.40768 5.67208 9.32925 5.73577C9.29047 5.76727 9.25249 5.80381 9.22191 5.84514C9.19652 5.87944 9.15132 5.94992 9.15132 6.04373V6.59742V6.84742H9.40132H12.3702ZM6.43249 6.84742H6.68249V6.59742V6.04373C6.68249 5.94477 6.63149 5.87226 6.60664 5.84055C6.57504 5.80025 6.53607 5.76459 6.49652 5.73385C6.41639 5.67155 6.30881 5.61013 6.18002 5.5559C5.92064 5.44669 5.55425 5.35781 5.09931 5.35781H4.76944C4.31621 5.35781 3.95582 5.44579 3.7015 5.55553C3.57527 5.61 3.47 5.67208 3.39157 5.73577C3.35279 5.76727 3.31481 5.80381 3.28423 5.84514C3.25884 5.87944 3.21365 5.94992 3.21365 6.04373V6.59742V6.84742H3.46365H6.43249ZM15.4241 9.73128L15.4241 9.4812H15.1741H0.659742H0.409742V9.7312V12.865V13.115H0.659742H3.40097C3.46363 13.115 3.51494 13.0932 3.53506 13.0841C3.56192 13.072 3.59499 13.0535 3.62539 13.0277L3.71365 12.9528V12.8371V12.3702C3.71365 12.2285 3.75794 12.1262 3.81573 12.0624C3.87187 12.0004 3.95288 11.9604 4.06071 11.9604H11.7731C11.8809 11.9604 11.9619 12.0004 12.0181 12.0624C12.0759 12.1262 12.1202 12.2285 12.1202 12.3702V12.8371V12.9528L12.2084 13.0277C12.2388 13.0535 12.2719 13.072 12.2988 13.0841C12.3189 13.0932 12.3702 13.115 12.4328 13.115H15.1731H15.423L15.4231 12.8651L15.4241 9.73128ZM0.989613 7.00716C0.669618 7.00716 0.409742 7.26704 0.409742 7.58704V8.74158C0.409742 9.06158 0.669618 9.32146 0.989613 9.32146H14.8442C15.1642 9.32146 15.4241 9.06158 15.4241 8.74158V7.58704C15.4241 7.26704 15.1642 7.00716 14.8442 7.00716H0.989613Z" fill="#DADADA" stroke="#C4C4C4" stroke-width="0.5"/>
</svg>
