<svg width="16" height="13" viewBox="0 0 16 13" fill="none" xmlns="http://www.w3.org/2000/svg">
<path d="M14.1713 7.99608C13.8546 5.06682 11.5587 2.77092 8.7086 2.45424V1.58338C9.18361 1.58338 9.50029 1.26671 9.50029 0.791691C9.50029 0.316676 9.18361 0 8.7086 0H7.12522C6.6502 0 6.33353 0.316676 6.33353 0.791691C6.33353 1.26671 6.6502 1.58338 7.12522 1.58338V2.45424C4.27513 2.85009 1.97923 5.14599 1.66255 7.99608C0.712521 8.31275 0 9.18361 0 10.292V12.6671H15.8338V10.292C15.8338 9.18361 15.1213 8.31275 14.1713 7.99608ZM7.91691 3.95845C10.2128 3.95845 12.192 5.621 12.5879 7.91691H3.24593C3.64178 5.621 5.621 3.95845 7.91691 3.95845ZM14.2504 11.0837H1.58338V10.292C1.58338 9.81696 1.90006 9.50029 2.37507 9.50029H13.4587C13.9338 9.50029 14.2504 9.81696 14.2504 10.292V11.0837Z" fill="#C4C4C4"/>
</svg>
