<svg width="36" height="36" viewBox="0 0 36 36" fill="none" xmlns="http://www.w3.org/2000/svg">
<path fill-rule="evenodd" clip-rule="evenodd" d="M17.6916 0C7.9208 0 0 7.9208 0 17.6916C0 27.4624 7.9208 35.3832 17.6916 35.3832C27.4624 35.3832 35.3832 27.4624 35.3832 17.6916C35.3832 7.9208 27.4624 0 17.6916 0ZM24.5022 13.3694L28.0004 13.3718C28.0004 13.3718 27.2204 14.4401 26.9751 15.5069C27.2629 15.9018 27.5035 16.3406 27.6796 16.8249C28.6821 19.5719 27.2904 22.6381 24.5793 23.6562C23.2669 24.1476 21.8414 24.0902 20.5692 23.4966C19.8041 23.136 19.1515 22.607 18.6459 21.9543L17.5215 23.6649L16.4057 21.9695C15.4449 23.183 13.9722 23.9641 12.3202 23.9641C9.43054 23.9641 7.07952 21.5793 7.07952 18.648C7.07952 17.4744 7.45851 16.3925 8.0962 15.5132C7.84694 14.4537 7.07637 13.3973 7.07637 13.3973L10.3552 13.3949C12.306 12.1008 14.7797 11.4027 17.5191 11.4027C20.1587 11.4027 22.5404 12.084 24.5022 13.3694Z" fill="white"/>
<path fill-rule="evenodd" clip-rule="evenodd" d="M12.3184 22.8936C13.7573 22.8936 15.0295 22.1516 15.782 21.0258C16.1626 20.457 16.3898 19.7844 16.4598 19.0663C16.4644 19.0214 16.4704 18.9768 16.4765 18.9321C16.4889 18.8396 16.5015 18.7469 16.5015 18.6506C16.5015 16.3089 14.6246 14.406 12.3184 14.406C10.0122 14.406 8.13452 16.3089 8.13452 18.6506C8.13452 20.9875 10.0114 22.8936 12.3184 22.8936ZM12.2518 21.2257C10.8239 21.2257 9.66171 20.0488 9.66171 18.5991C9.66171 17.1526 10.8239 15.9766 12.2518 15.9758C13.6757 15.9758 14.8379 17.1534 14.8379 18.5991C14.8379 20.0488 13.6765 21.2257 12.2518 21.2257Z" fill="white"/>
<path fill-rule="evenodd" clip-rule="evenodd" d="M21.0123 22.521C22.0275 22.9966 23.1644 23.0404 24.2126 22.6487C26.3764 21.8349 27.4875 19.3911 26.6886 17.1961C25.8889 15.0004 23.4797 13.8739 21.3151 14.6837C20.2669 15.0762 19.4319 15.8605 18.9633 16.8906C18.6503 17.5799 18.545 18.3259 18.6149 19.0623C18.6495 19.4254 18.7132 19.786 18.8406 20.1355C18.9523 20.4442 19.1048 20.7275 19.2778 20.9939C19.7024 21.6522 20.2921 22.1828 21.0123 22.521ZM22.7514 21.2241C21.3235 21.2241 20.1629 20.0473 20.1629 18.5976C20.1629 17.1511 21.3243 15.975 22.7514 15.9742C24.1769 15.9742 25.3367 17.1519 25.3367 18.5976C25.3367 20.0473 24.1769 21.2241 22.7514 21.2241Z" fill="white"/>
<path fill-rule="evenodd" clip-rule="evenodd" d="M12.2539 16.8801C11.3182 16.8801 10.5547 17.6517 10.5547 18.5995C10.5547 19.5514 11.3182 20.3237 12.2539 20.3229C13.188 20.3229 13.9475 19.5506 13.9475 18.5995C13.9475 17.6525 13.188 16.8801 12.2539 16.8801ZM12.2519 17.719C12.7323 17.7182 13.1223 18.1131 13.1223 18.5998C13.1223 19.0873 12.7323 19.4862 12.2519 19.4862C11.7699 19.4862 11.3807 19.0873 11.3807 18.5998C11.3807 18.1131 11.7699 17.719 12.2519 17.719Z" fill="white"/>
<path fill-rule="evenodd" clip-rule="evenodd" d="M22.754 16.8801C21.8175 16.8801 21.0564 17.6517 21.0564 18.5995C21.0564 19.5514 21.8167 20.3237 22.754 20.3229C23.6881 20.3229 24.4469 19.5506 24.4469 18.5995C24.4469 17.6525 23.6881 16.8801 22.754 16.8801ZM22.7532 17.719C23.2336 17.7182 23.6221 18.1131 23.6221 18.5998C23.6221 19.0873 23.2336 19.4862 22.7532 19.4862C22.2696 19.4862 21.882 19.0873 21.882 18.5998C21.882 18.1131 22.2696 17.719 22.7532 17.719Z" fill="white"/>
<path d="M20.9478 13.6776C21.4935 13.4733 22.0518 13.3744 22.6029 13.3592C21.1011 12.6763 19.4012 12.3308 17.518 12.3308C15.649 12.3308 13.9246 12.6851 12.4236 13.3353C15.1402 13.3904 17.3489 15.5494 17.5392 18.2701C17.5856 17.6453 17.7358 17.0278 18.0016 16.443C18.5873 15.1504 19.6347 14.1691 20.9478 13.6776Z" fill="white"/>
</svg>
