<svg width="16" height="16" viewBox="0 0 16 16" fill="none" xmlns="http://www.w3.org/2000/svg">
<path fill-rule="evenodd" clip-rule="evenodd" d="M1 7.69373C1.00147 4.00332 4.00486 1.00009 7.69695 1H7.69712C9.48592 1.00067 11.165 1.69713 12.4295 2.9631C13.694 4.22913 14.389 5.90941 14.3883 7.69916C14.3868 11.3901 11.3832 14.3935 7.69429 14.3935H7.69157H7.69137C6.48979 14.393 5.31185 14.0701 4.28491 13.4607L4.02224 13.3048L3.84243 13.1981L3.64018 13.2512L1.75519 13.7456L2.25324 11.9263L2.31127 11.7144L2.19433 11.5283L2.02328 11.2561L2.02322 11.256C1.35348 10.1908 0.999482 8.95932 1 7.69373ZM7.69712 0C3.4528 0 0.00168478 3.45076 6.53745e-07 7.69332C-0.000595154 9.1464 0.406074 10.5626 1.17659 11.7882L1.17664 11.7883L1.2307 11.8743L0.561965 14.317L0.333254 15.1525L1.17109 14.9327L3.69167 14.2715L3.77456 14.3207L3.77458 14.3207C4.95669 15.0222 6.31097 15.393 7.69118 15.3935H7.69137H7.69429C11.9357 15.3935 15.3866 11.9422 15.3883 7.69954C15.3891 5.6447 14.5889 3.71006 13.137 2.25641C11.685 0.802737 9.75152 0.000712276 7.69729 0H7.69712ZM11.7587 9.56349C11.9095 9.6364 12.0114 9.68562 12.0549 9.75823C12.1089 9.8484 12.1089 10.2814 11.9288 10.7867C11.7485 11.2919 10.8845 11.7529 10.4689 11.815C10.0963 11.8707 9.62483 11.8939 9.10676 11.7293C8.79264 11.6296 8.38982 11.4966 7.87383 11.2737C5.84632 10.3983 4.47615 8.43317 4.21719 8.06177C4.19905 8.03576 4.18636 8.01756 4.17928 8.00811L4.17754 8.00578C4.06308 7.85307 3.29619 6.82984 3.29619 5.77085C3.29619 4.77465 3.78554 4.25249 4.01079 4.01214C4.02622 3.99567 4.04041 3.98053 4.05312 3.96664C4.25136 3.75012 4.48568 3.69599 4.62985 3.69599C4.77401 3.69599 4.91834 3.69732 5.04435 3.70365C5.0599 3.70443 5.07607 3.70434 5.09279 3.70424C5.21882 3.7035 5.37595 3.70258 5.53095 4.0749C5.59058 4.21819 5.67784 4.43061 5.76986 4.65465C5.95596 5.10772 6.16158 5.60831 6.19776 5.68075C6.25184 5.78901 6.28787 5.91526 6.21578 6.05966C6.20496 6.08131 6.19495 6.10175 6.18539 6.12127C6.13125 6.23181 6.09142 6.31312 5.99952 6.42042C5.96338 6.46261 5.92603 6.5081 5.88869 6.55358C5.81428 6.64419 5.73989 6.73479 5.6751 6.79933C5.56684 6.90718 5.45413 7.02418 5.58028 7.2407C5.70644 7.45723 6.14048 8.16542 6.78342 8.73891C7.47455 9.35537 8.07522 9.61592 8.3797 9.74798C8.43915 9.77378 8.48732 9.79467 8.52265 9.81235C8.73884 9.92064 8.865 9.90252 8.99117 9.75823C9.11734 9.61389 9.53181 9.12669 9.67596 8.91021C9.82012 8.69377 9.96435 8.72982 10.1626 8.80197C10.3608 8.87421 11.4241 9.39735 11.6404 9.5056C11.6826 9.52674 11.7221 9.54581 11.7587 9.56349Z" fill="#DADADA"/>
</svg>
