<svg width="36" height="36" viewBox="0 0 36 36" fill="none" xmlns="http://www.w3.org/2000/svg">
<path fill-rule="evenodd" clip-rule="evenodd" d="M17.7663 0C7.99551 0 0.074707 7.9208 0.074707 17.6916C0.074707 27.4624 7.99551 35.3832 17.7663 35.3832C27.5371 35.3832 35.4579 27.4624 35.4579 17.6916C35.4579 7.9208 27.5371 0 17.7663 0ZM13.8789 8.3137C14.8854 8.2679 15.2069 8.2567 17.7695 8.2567H17.7666C20.3299 8.2567 20.6503 8.2679 21.6568 8.3137C22.6613 8.3597 23.3473 8.51873 23.9489 8.75207C24.57 8.99287 25.0949 9.31526 25.6197 9.84011C26.1446 10.3646 26.467 10.891 26.7088 11.5116C26.9407 12.1115 27.1 12.7972 27.1471 13.8017C27.1924 14.8082 27.2041 15.1298 27.2041 17.6923C27.2041 20.2549 27.1924 20.5757 27.1471 21.5822C27.1 22.5863 26.9407 23.2721 26.7088 23.8723C26.467 24.4927 26.1446 25.0191 25.6197 25.5435C25.0955 26.0684 24.5698 26.3916 23.9494 26.6326C23.3491 26.8659 22.6627 27.0249 21.6582 27.0709C20.6517 27.1167 20.3311 27.1279 17.7683 27.1279C15.206 27.1279 14.8846 27.1167 13.8781 27.0709C12.8738 27.0249 12.1879 26.8659 11.5876 26.6326C10.9674 26.3916 10.441 26.0684 9.91671 25.5435C9.39205 25.0191 9.06967 24.4927 8.82847 23.8721C8.59533 23.2721 8.4363 22.5865 8.39011 21.582C8.3445 20.5755 8.3331 20.2549 8.3331 17.6923C8.3331 15.1298 8.34489 14.808 8.38991 13.8015C8.43512 12.7974 8.59435 12.1115 8.82827 11.5114C9.07006 10.891 9.39244 10.3646 9.9173 9.84011C10.4418 9.31545 10.9682 8.99307 11.5888 8.75207C12.1887 8.51873 12.8744 8.3597 13.8789 8.3137Z" fill="white"/>
<path fill-rule="evenodd" clip-rule="evenodd" d="M16.9208 9.95768C17.0851 9.95742 17.2619 9.9575 17.4527 9.95759L17.7672 9.95768C20.2865 9.95768 20.5851 9.96672 21.58 10.0119C22.5 10.054 22.9993 10.2077 23.3319 10.3369C23.7722 10.5079 24.0861 10.7123 24.4162 11.0426C24.7464 11.3728 24.9509 11.6873 25.1223 12.1277C25.2514 12.4599 25.4054 12.9592 25.4472 13.8792C25.4924 14.8738 25.5023 15.1726 25.5023 17.6908C25.5023 20.2089 25.4924 20.5077 25.4472 21.5024C25.4052 22.4223 25.2514 22.9216 25.1223 23.2538C24.9513 23.6942 24.7464 24.0077 24.4162 24.3378C24.0859 24.668 23.7724 24.8724 23.3319 25.0435C22.9997 25.1732 22.5 25.3265 21.58 25.3686C20.5853 25.4138 20.2865 25.4236 17.7672 25.4236C15.2477 25.4236 14.9491 25.4138 13.9544 25.3686C13.0345 25.3261 12.5352 25.1724 12.2024 25.0433C11.762 24.8723 11.4475 24.6678 11.1173 24.3376C10.787 24.0073 10.5826 23.6936 10.4112 23.2531C10.282 22.9208 10.1281 22.4215 10.0862 21.5016C10.041 20.5069 10.032 20.2081 10.032 17.6884C10.032 15.1687 10.041 14.8715 10.0862 13.8768C10.1283 12.9568 10.282 12.4575 10.4112 12.1249C10.5822 11.6846 10.787 11.3701 11.1173 11.0398C11.4475 10.7096 11.762 10.5051 12.2024 10.3337C12.535 10.204 13.0345 10.0507 13.9544 10.0084C14.8249 9.96908 15.1622 9.95729 16.9208 9.95532V9.95768ZM22.8044 11.5249C22.1793 11.5249 21.6721 12.0314 21.6721 12.6567C21.6721 13.2818 22.1793 13.789 22.8044 13.789C23.4295 13.789 23.9367 13.2818 23.9367 12.6567C23.9367 12.0316 23.4295 11.5245 22.8044 11.5245V11.5249ZM12.9247 17.6949C12.9247 15.019 15.0943 12.8494 17.7703 12.8494H17.7701C20.446 12.8494 22.6151 15.019 22.6151 17.6949C22.6151 20.3709 20.4462 22.5395 17.7703 22.5395C15.0943 22.5395 12.9247 20.3709 12.9247 17.6949Z" fill="white"/>
<path fill-rule="evenodd" clip-rule="evenodd" d="M17.767 14.5486C19.504 14.5486 20.9122 15.9567 20.9122 17.6938C20.9122 19.4307 19.504 20.839 17.767 20.839C16.0299 20.839 14.6218 19.4307 14.6218 17.6938C14.6218 15.9567 16.0299 14.5486 17.767 14.5486V14.5486Z" fill="white"/>
</svg>
