<svg width="24" height="20" viewBox="0 0 24 20" fill="none" xmlns="http://www.w3.org/2000/svg">
<path d="M21.48 12.12C21 7.68 17.52 4.2 13.2 3.72V2.4C13.92 2.4 14.4 1.92 14.4 1.2C14.4 0.48 13.92 0 13.2 0H10.8C10.08 0 9.6 0.48 9.6 1.2C9.6 1.92 10.08 2.4 10.8 2.4V3.72C6.48 4.32 3 7.8 2.52 12.12C1.08 12.6 0 13.92 0 15.6V19.2H24V15.6C24 13.92 22.92 12.6 21.48 12.12ZM12 6C15.48 6 18.48 8.52 19.08 12H4.92C5.52 8.52 8.52 6 12 6ZM21.6 16.8H2.4V15.6C2.4 14.88 2.88 14.4 3.6 14.4H20.4C21.12 14.4 21.6 14.88 21.6 15.6V16.8Z" fill="#2D5258" fill-opacity="0.4"/>
</svg>
