<svg width="15" height="15" viewBox="0 0 15 15" fill="none" xmlns="http://www.w3.org/2000/svg">
<path d="M3.09888 0.0305313C3.06377 0.0351111 3.02866 0.0351111 2.98439 0C2.64244 0.0793815 2.29896 0.15113 1.95854 0.241198C1.53415 0.35569 1.20594 0.612154 0.943368 0.961737C0.60905 1.41207 0.387697 1.91584 0.210616 2.44251C0.0136884 3.02566 -0.051954 3.61796 0.0426932 4.23317C0.125128 4.77663 0.308316 5.28498 0.494557 5.7979C0.801397 6.6482 1.1403 7.48171 1.61506 8.25568C2.34323 9.44793 3.24391 10.4952 4.25297 11.4554C5.04983 12.211 5.91082 12.8873 6.85729 13.4475C7.89994 14.0627 9.03265 14.4688 10.1822 14.823C10.7775 15.0092 11.3973 15.0596 12.0186 14.9207C12.7025 14.768 13.3452 14.5192 13.9207 14.1162C14.1283 13.9681 14.3344 13.7849 14.4794 13.5758C14.826 13.072 14.9252 12.4858 14.9588 11.8889C14.971 11.6767 14.8992 11.5225 14.7206 11.4172C14.3894 11.2187 14.0612 11.0111 13.7238 10.8173C13.0948 10.4555 12.4293 10.1547 11.8339 9.72881C11.7789 9.68912 11.7118 9.66165 11.6492 9.63111C11.4248 9.51815 11.2111 9.53647 11.0157 9.70134C10.9195 9.78072 10.8203 9.86315 10.7378 9.95627C10.3943 10.3425 10.0616 10.7318 9.71655 11.1149C9.34559 11.5286 9.15935 11.5744 8.68154 11.3042C8.17472 11.0172 7.67248 10.7165 7.19008 10.3883C5.9383 9.54105 4.94755 8.44192 4.17206 7.14892C3.96292 6.79933 3.77362 6.44211 3.5828 6.0849C3.45915 5.85133 3.50647 5.62998 3.68966 5.4529C3.92475 5.22697 4.17511 5.01477 4.41631 4.79342C4.70483 4.52933 5.00404 4.27134 5.27577 3.9935C5.46659 3.79963 5.47269 3.55538 5.34446 3.31265C5.28187 3.20579 5.21776 3.09588 5.15059 2.98902C5.07731 2.87605 4.9903 2.76919 4.92771 2.65165C4.68346 2.21352 4.45447 1.76777 4.20564 1.33422C3.9904 0.958684 3.76294 0.592308 3.53701 0.225932C3.43625 0.0595361 3.28054 0.0152657 3.09888 0.0305313Z" fill="#DADADA"/>
</svg>
