<svg width="36" height="36" viewBox="0 0 36 36" fill="none" xmlns="http://www.w3.org/2000/svg">
<g clip-path="url(#clip0)">
<path fill-rule="evenodd" clip-rule="evenodd" d="M17.916 0.616699C8.14517 0.616699 0.224365 8.5375 0.224365 18.3083C0.224365 28.0791 8.14517 35.9999 17.916 35.9999C27.6868 35.9999 35.6076 28.0791 35.6076 18.3083C35.6076 8.5375 27.6868 0.616699 17.916 0.616699ZM25.2891 12.227C26.1011 12.4498 26.7405 13.1063 26.9575 13.9401C27.3519 15.4511 27.3519 18.6038 27.3519 18.6038C27.3519 18.6038 27.3519 21.7565 26.9575 23.2676C26.7405 24.1013 26.1011 24.7579 25.2891 24.9808C23.8176 25.3856 17.9164 25.3856 17.9164 25.3856C17.9164 25.3856 12.0152 25.3856 10.5436 24.9808C9.7316 24.7579 9.09213 24.1013 8.87512 23.2676C8.48086 21.7565 8.48086 18.6038 8.48086 18.6038C8.48086 18.6038 8.48086 15.4511 8.87512 13.9401C9.09213 13.1063 9.7316 12.4498 10.5436 12.227C12.0152 11.8221 17.9164 11.8221 17.9164 11.8221C17.9164 11.8221 23.8176 11.8221 25.2891 12.227Z" fill="white"/>
<path d="M16.147 21.8459V15.9487L20.8647 18.8974L16.147 21.8459Z" fill="white"/>
</g>
<defs>
<clipPath id="clip0">
<rect width="35.3832" height="35.3832" fill="white" transform="translate(0.224365 0.616699)"/>
</clipPath>
</defs>
</svg>
