<svg width="20" height="20" viewBox="0 0 20 20" fill="none" xmlns="http://www.w3.org/2000/svg">
<path fill-rule="evenodd" clip-rule="evenodd" d="M10 0C4.47715 0 0 4.47715 0 10C0 15.5228 4.47715 20 10 20C15.5228 20 20 15.5228 20 10C20 4.47715 15.5228 0 10 0ZM7.80267 4.69887C8.37157 4.67299 8.55335 4.66665 10.0018 4.66665H10.0001C11.449 4.66665 11.6302 4.67299 12.199 4.69887C12.7668 4.72487 13.1546 4.81476 13.4946 4.94665C13.8457 5.08277 14.1424 5.26499 14.4391 5.56166C14.7357 5.85811 14.918 6.15567 15.0546 6.50645C15.1857 6.84556 15.2757 7.23312 15.3024 7.80091C15.328 8.3698 15.3346 8.55158 15.3346 10C15.3346 11.4485 15.328 11.6298 15.3024 12.1987C15.2757 12.7663 15.1857 13.154 15.0546 13.4932C14.918 13.8439 14.7357 14.1414 14.4391 14.4379C14.1427 14.7345 13.8456 14.9172 13.495 15.0534C13.1556 15.1853 12.7676 15.2752 12.1998 15.3012C11.6309 15.3271 11.4497 15.3334 10.0011 15.3334C8.55279 15.3334 8.37112 15.3271 7.80223 15.3012C7.23455 15.2752 6.84688 15.1853 6.50755 15.0534C6.15699 14.9172 5.85943 14.7345 5.56309 14.4379C5.26653 14.1414 5.08431 13.8439 4.94797 13.4931C4.8162 13.154 4.72631 12.7664 4.70019 12.1986C4.67442 11.6297 4.66797 11.4485 4.66797 10C4.66797 8.55158 4.67464 8.36969 4.70008 7.8008C4.72564 7.23323 4.81564 6.84556 4.94786 6.50634C5.08453 6.15567 5.26676 5.85811 5.56343 5.56166C5.85987 5.2651 6.15743 5.08288 6.50821 4.94665C6.84733 4.81476 7.23489 4.72487 7.80267 4.69887Z" fill="#2D5258"/>
<path fill-rule="evenodd" clip-rule="evenodd" d="M9.52199 5.6278C9.61489 5.62765 9.71483 5.6277 9.82268 5.62775L10.0004 5.6278C11.4245 5.6278 11.5932 5.63291 12.1556 5.65847C12.6756 5.68224 12.9578 5.76913 13.1458 5.84213C13.3947 5.9388 13.5721 6.05436 13.7587 6.24103C13.9454 6.4277 14.0609 6.60548 14.1578 6.85437C14.2308 7.04215 14.3178 7.32437 14.3415 7.84438C14.367 8.4066 14.3726 8.5755 14.3726 9.99884C14.3726 11.4222 14.367 11.5911 14.3415 12.1533C14.3177 12.6733 14.2308 12.9555 14.1578 13.1433C14.0612 13.3922 13.9454 13.5694 13.7587 13.756C13.572 13.9427 13.3948 14.0582 13.1458 14.1549C12.958 14.2282 12.6756 14.3149 12.1556 14.3387C11.5933 14.3642 11.4245 14.3698 10.0004 14.3698C8.57632 14.3698 8.40754 14.3642 7.84531 14.3387C7.3253 14.3147 7.04308 14.2278 6.85496 14.1548C6.60607 14.0581 6.42829 13.9426 6.24162 13.7559C6.05496 13.5692 5.9394 13.3919 5.84251 13.1429C5.76951 12.9551 5.68251 12.6729 5.65884 12.1529C5.63328 11.5906 5.62817 11.4217 5.62817 9.99751C5.62817 8.57327 5.63328 8.40527 5.65884 7.84304C5.68262 7.32304 5.76951 7.04081 5.84251 6.85281C5.93918 6.60392 6.05496 6.42614 6.24162 6.23947C6.42829 6.0528 6.60607 5.93725 6.85496 5.84036C7.04297 5.76702 7.3253 5.68035 7.84531 5.65647C8.33731 5.63424 8.52798 5.62758 9.52199 5.62646V5.6278ZM12.8476 6.51308C12.4943 6.51308 12.2076 6.79942 12.2076 7.15287C12.2076 7.5062 12.4943 7.79287 12.8476 7.79287C13.201 7.79287 13.4877 7.5062 13.4877 7.15287C13.4877 6.79953 13.201 6.51286 12.8476 6.51286V6.51308ZM7.26324 10.0014C7.26324 8.48886 8.48952 7.26254 10.002 7.26248C11.5146 7.26248 12.7406 8.48883 12.7406 10.0014C12.7406 11.514 11.5147 12.7398 10.0022 12.7398C8.48958 12.7398 7.26324 11.514 7.26324 10.0014Z" fill="#2D5258"/>
<path fill-rule="evenodd" clip-rule="evenodd" d="M10.0005 8.22363C10.9822 8.22363 11.7782 9.01953 11.7782 10.0014C11.7782 10.9832 10.9822 11.7792 10.0005 11.7792C9.01855 11.7792 8.22266 10.9832 8.22266 10.0014C8.22266 9.01953 9.01855 8.22363 10.0005 8.22363V8.22363Z" fill="#2D5258"/>
</svg>
