<svg width="20" height="21" viewBox="0 0 20 21" fill="none" xmlns="http://www.w3.org/2000/svg">
<g clip-path="url(#clip0)">
<path fill-rule="evenodd" clip-rule="evenodd" d="M10 0.348633C4.47715 0.348633 0 4.82579 0 10.3486C0 15.8715 4.47715 20.3486 10 20.3486C15.5228 20.3486 20 15.8715 20 10.3486C20 4.82579 15.5228 0.348633 10 0.348633ZM14.1676 6.91103C14.6265 7.03697 14.988 7.40806 15.1107 7.87932C15.3336 8.73341 15.3336 10.5155 15.3336 10.5155C15.3336 10.5155 15.3336 12.2975 15.1107 13.1516C14.988 13.6229 14.6265 13.994 14.1676 14.12C13.3358 14.3488 10.0002 14.3488 10.0002 14.3488C10.0002 14.3488 6.66466 14.3488 5.83284 14.12C5.37387 13.994 5.01241 13.6229 4.88975 13.1516C4.6669 12.2975 4.6669 10.5155 4.6669 10.5155C4.6669 10.5155 4.6669 8.73341 4.88975 7.87932C5.01241 7.40806 5.37387 7.03697 5.83284 6.91103C6.66466 6.68214 10.0002 6.68214 10.0002 6.68214C10.0002 6.68214 13.3358 6.68214 14.1676 6.91103Z" fill="#2D5258"/>
<path d="M9 12.3485V9.01514L11.6667 10.6819L9 12.3485Z" fill="#2D5258"/>
</g>
<defs>
<clipPath id="clip0">
<rect width="20" height="20" fill="white" transform="translate(0 0.348633)"/>
</clipPath>
</defs>
</svg>
