<svg width="20" height="20" viewBox="0 0 20 20" fill="none" xmlns="http://www.w3.org/2000/svg">
<path fill-rule="evenodd" clip-rule="evenodd" d="M10 0C4.47715 0 0 4.47715 0 10C0 15.5228 4.47715 20 10 20C15.5228 20 20 15.5228 20 10C20 4.47715 15.5228 0 10 0ZM13.8496 7.55687L15.827 7.55822C15.827 7.55822 15.3861 8.16208 15.2474 8.76504C15.4101 8.98828 15.5461 9.23632 15.6456 9.51006C16.2123 11.0628 15.4256 12.7959 13.8932 13.3714C13.1514 13.6492 12.3456 13.6167 11.6265 13.2812C11.1941 13.0773 10.8252 12.7783 10.5394 12.4094L9.90385 13.3763L9.27318 12.418C8.73007 13.1039 7.89762 13.5454 6.96385 13.5454C5.33051 13.5454 4.00162 12.1975 4.00162 10.5406C4.00162 9.87716 4.21585 9.26563 4.57629 8.76865C4.4354 8.16975 3.99985 7.57265 3.99985 7.57265L5.85318 7.5713C6.95585 6.83981 8.35407 6.4452 9.90251 6.4452C11.3945 6.4452 12.7407 6.83034 13.8496 7.55687Z" fill="#2D5258"/>
<path fill-rule="evenodd" clip-rule="evenodd" d="M6.96279 12.9396C7.77612 12.9396 8.49523 12.5202 8.92057 11.8839C9.13568 11.5623 9.26412 11.1821 9.30368 10.7763C9.30628 10.7509 9.30969 10.7257 9.31309 10.7004C9.32016 10.6482 9.32723 10.5958 9.32723 10.5413C9.32723 9.21768 8.26635 8.14209 6.96279 8.14209C5.65923 8.14209 4.5979 9.21768 4.5979 10.5413C4.5979 11.8622 5.65879 12.9396 6.96279 12.9396ZM6.92513 11.997C6.11802 11.997 5.46113 11.3318 5.46113 10.5123C5.46113 9.69471 6.11802 9.02996 6.92513 9.02951C7.73002 9.02951 8.38691 9.69516 8.38691 10.5123C8.38691 11.3318 7.73046 11.997 6.92513 11.997Z" fill="#2D5258"/>
<path fill-rule="evenodd" clip-rule="evenodd" d="M11.8771 12.7302C12.4508 12.999 13.0935 13.0238 13.686 12.8024C14.9091 12.3424 15.5371 10.961 15.0855 9.7204C14.6335 8.4793 13.2717 7.84252 12.0482 8.30026C11.4557 8.52214 10.9837 8.96546 10.7188 9.54767C10.542 9.93732 10.4824 10.359 10.522 10.7752C10.5415 10.9804 10.5775 11.1843 10.6495 11.3818C10.7126 11.5563 10.7988 11.7164 10.8966 11.8671C11.1366 12.2391 11.47 12.539 11.8771 12.7302ZM12.8601 11.997C12.0529 11.997 11.3969 11.3318 11.3969 10.5124C11.3969 9.69472 12.0534 9.02998 12.8601 9.02953C13.6658 9.02953 14.3214 9.69518 14.3214 10.5124C14.3214 11.3318 13.6658 11.997 12.8601 11.997Z" fill="#2D5258"/>
<path fill-rule="evenodd" clip-rule="evenodd" d="M6.92651 9.54053C6.39762 9.54053 5.96606 9.97663 5.96606 10.5124C5.96606 11.0504 6.39762 11.487 6.92651 11.4865C7.45451 11.4865 7.88384 11.05 7.88384 10.5124C7.88384 9.97708 7.45451 9.54053 6.92651 9.54053ZM6.92541 10.0152C7.19696 10.0148 7.41741 10.238 7.41741 10.5131C7.41741 10.7887 7.19696 11.0142 6.92541 11.0142C6.65296 11.0142 6.43296 10.7887 6.43296 10.5131C6.43296 10.238 6.65296 10.0152 6.92541 10.0152Z" fill="#2D5258"/>
<path fill-rule="evenodd" clip-rule="evenodd" d="M12.8614 9.54053C12.3321 9.54053 11.9019 9.97663 11.9019 10.5124C11.9019 11.0504 12.3316 11.487 12.8614 11.4865C13.3894 11.4865 13.8183 11.05 13.8183 10.5124C13.8183 9.97708 13.3894 9.54053 12.8614 9.54053ZM12.861 10.0152C13.1325 10.0148 13.3521 10.238 13.3521 10.5131C13.3521 10.7887 13.1325 11.0142 12.861 11.0142C12.5876 11.0142 12.3685 10.7887 12.3685 10.5131C12.3685 10.238 12.5876 10.0152 12.861 10.0152Z" fill="#2D5258"/>
<path d="M11.8404 7.73049C12.1489 7.61504 12.4644 7.55912 12.776 7.55055C11.9271 7.16451 10.9662 6.96924 9.90177 6.96924C8.84533 6.96924 7.87066 7.16947 7.02222 7.53702C8.55777 7.56814 9.80622 8.78849 9.91377 10.3263C9.93999 9.97322 10.0249 9.62416 10.1751 9.29359C10.5062 8.563 11.0982 8.0083 11.8404 7.73049Z" fill="#2D5258"/>
</svg>
