<svg width="179" height="40" viewBox="0 0 179 40" fill="none" xmlns="http://www.w3.org/2000/svg">
<path d="M79.88 13.424C79.88 13.8293 79.896 14.16 79.928 14.416C79.9707 14.6613 80.0507 14.8533 80.168 14.992C80.296 15.12 80.4667 15.2107 80.68 15.264C80.904 15.3173 81.1973 15.3493 81.56 15.36V16H75.688V15.36C76.0827 15.3493 76.3973 15.3173 76.632 15.264C76.8773 15.2107 77.064 15.12 77.192 14.992C77.3307 14.864 77.4213 14.6827 77.464 14.448C77.5067 14.2133 77.528 13.9093 77.528 13.536V10.192H71.592V13.424C71.592 13.8293 71.6133 14.16 71.656 14.416C71.6987 14.6613 71.784 14.8533 71.912 14.992C72.04 15.12 72.2213 15.2107 72.456 15.264C72.7013 15.3173 73.0213 15.3493 73.416 15.36V16H67.56V15.36C67.9227 15.3493 68.2107 15.3173 68.424 15.264C68.648 15.2107 68.8187 15.12 68.936 14.992C69.0533 14.864 69.1333 14.6827 69.176 14.448C69.2187 14.2133 69.24 13.9093 69.24 13.536V6.144C69.24 5.77067 69.2187 5.472 69.176 5.248C69.144 5.01333 69.0747 4.832 68.968 4.704C68.8613 4.56533 68.7067 4.47467 68.504 4.432C68.312 4.37867 68.056 4.34133 67.736 4.32V3.68H73.256V4.32C72.8933 4.33067 72.6 4.36267 72.376 4.416C72.1627 4.46933 71.9973 4.56533 71.88 4.704C71.7627 4.84267 71.6827 5.03467 71.64 5.28C71.608 5.52533 71.592 5.85067 71.592 6.256V9.2H77.528V6.144C77.528 5.77067 77.5067 5.472 77.464 5.248C77.4213 5.01333 77.3413 4.832 77.224 4.704C77.1067 4.56533 76.936 4.47467 76.712 4.432C76.4987 4.37867 76.2107 4.34133 75.848 4.32V3.68H81.384V4.32C81.064 4.33067 80.8027 4.36267 80.6 4.416C80.408 4.46933 80.2587 4.56533 80.152 4.704C80.0453 4.84267 79.9707 5.03467 79.928 5.28C79.896 5.52533 79.88 5.85067 79.88 6.256V13.424ZM89.4895 3.52C90.4495 3.52 91.3455 3.68533 92.1775 4.016C93.0095 4.34667 93.7295 4.8 94.3375 5.376C94.9562 5.952 95.4415 6.62933 95.7935 7.408C96.1455 8.18667 96.3215 9.02933 96.3215 9.936C96.3215 10.8 96.1402 11.6107 95.7775 12.368C95.4255 13.1253 94.9402 13.7867 94.3215 14.352C93.7135 14.9067 92.9935 15.3493 92.1615 15.68C91.3295 16 90.4388 16.16 89.4895 16.16C88.5402 16.16 87.6495 16 86.8175 15.68C85.9855 15.3493 85.2602 14.9067 84.6415 14.352C84.0228 13.7867 83.5375 13.1253 83.1855 12.368C82.8335 11.6107 82.6575 10.8 82.6575 9.936C82.6575 9.02933 82.8335 8.18667 83.1855 7.408C83.5375 6.62933 84.0175 5.952 84.6255 5.376C85.2442 4.8 85.9695 4.34667 86.8015 4.016C87.6335 3.68533 88.5295 3.52 89.4895 3.52ZM89.4895 15.12C90.1082 15.12 90.6682 15.0027 91.1695 14.768C91.6708 14.5227 92.0975 14.1813 92.4495 13.744C92.8015 13.296 93.0682 12.7573 93.2495 12.128C93.4415 11.488 93.5375 10.7733 93.5375 9.984C93.5375 9.152 93.4415 8.40533 93.2495 7.744C93.0682 7.072 92.8015 6.50133 92.4495 6.032C92.0975 5.552 91.6708 5.18933 91.1695 4.944C90.6682 4.688 90.1082 4.56 89.4895 4.56C88.8602 4.56 88.2948 4.688 87.7935 4.944C87.3028 5.18933 86.8815 5.552 86.5295 6.032C86.1775 6.50133 85.9055 7.072 85.7135 7.744C85.5322 8.40533 85.4415 9.152 85.4415 9.984C85.4415 10.7733 85.5322 11.488 85.7135 12.128C85.9055 12.7573 86.1775 13.296 86.5295 13.744C86.8815 14.1813 87.3028 14.5227 87.7935 14.768C88.2948 15.0027 88.8602 15.12 89.4895 15.12ZM109.993 7.2H109.305C109.273 6.67733 109.193 6.24533 109.065 5.904C108.948 5.552 108.777 5.27467 108.553 5.072C108.329 4.85867 108.057 4.71467 107.737 4.64C107.417 4.55467 107.044 4.512 106.617 4.512C106.201 4.512 105.865 4.52267 105.609 4.544C105.364 4.55467 105.172 4.58133 105.033 4.624C104.905 4.656 104.82 4.704 104.777 4.768C104.734 4.832 104.713 4.912 104.713 5.008V13.392C104.713 13.7333 104.734 14.0267 104.777 14.272C104.83 14.5173 104.932 14.72 105.081 14.88C105.23 15.0293 105.449 15.1467 105.737 15.232C106.025 15.3067 106.404 15.3493 106.873 15.36V16H100.169V15.36C100.649 15.3493 101.033 15.3067 101.321 15.232C101.609 15.1467 101.828 15.0293 101.977 14.88C102.137 14.72 102.238 14.5173 102.281 14.272C102.334 14.0267 102.361 13.7333 102.361 13.392V5.008C102.361 4.912 102.34 4.832 102.297 4.768C102.265 4.704 102.19 4.656 102.073 4.624C101.956 4.58133 101.785 4.55467 101.561 4.544C101.348 4.52267 101.065 4.512 100.713 4.512C100.329 4.512 99.9611 4.53333 99.6091 4.576C99.2571 4.608 98.9478 4.71467 98.6811 4.896C98.4145 5.06667 98.1958 5.33333 98.0251 5.696C97.8651 6.048 97.7798 6.54933 97.7691 7.2H97.1451L97.3051 3.68H109.833L109.993 7.2ZM114.78 9.184C115.462 9.184 116.012 9.16267 116.428 9.12C116.844 9.07733 117.164 8.992 117.388 8.864C117.622 8.72533 117.788 8.528 117.884 8.272C117.98 8.016 118.054 7.66933 118.108 7.232H118.7V11.92H118.108C118.044 11.4933 117.958 11.152 117.852 10.896C117.745 10.64 117.574 10.448 117.34 10.32C117.105 10.1813 116.785 10.096 116.38 10.064C115.985 10.0213 115.452 10 114.78 10V13.296C114.78 13.6373 114.822 13.9253 114.908 14.16C115.004 14.3947 115.158 14.5867 115.372 14.736C115.585 14.8747 115.868 14.976 116.22 15.04C116.572 15.0933 117.004 15.12 117.516 15.12C118.124 15.12 118.636 15.0773 119.052 14.992C119.478 14.9067 119.83 14.7573 120.108 14.544C120.385 14.3307 120.609 14.048 120.78 13.696C120.95 13.3333 121.094 12.88 121.212 12.336H121.852L121.596 16H110.748V15.36C111.1 15.3493 111.388 15.3173 111.612 15.264C111.836 15.2107 112.006 15.12 112.124 14.992C112.241 14.864 112.321 14.6827 112.364 14.448C112.406 14.2133 112.428 13.9093 112.428 13.536V6.144C112.428 5.77067 112.406 5.472 112.364 5.248C112.332 5.01333 112.262 4.832 112.156 4.704C112.049 4.56533 111.894 4.47467 111.692 4.432C111.5 4.37867 111.244 4.34133 110.924 4.32V3.68H121.036L121.148 6.816H120.46C120.396 6.368 120.294 6 120.156 5.712C120.017 5.41333 119.825 5.17867 119.58 5.008C119.334 4.82667 119.014 4.704 118.62 4.64C118.236 4.56533 117.761 4.528 117.196 4.528H115.388C115.11 4.528 114.94 4.56533 114.876 4.64C114.812 4.704 114.78 4.864 114.78 5.12V9.184ZM133.99 16H122.966V15.36C123.318 15.3493 123.606 15.3173 123.83 15.264C124.054 15.2107 124.225 15.12 124.342 14.992C124.46 14.864 124.54 14.6827 124.582 14.448C124.625 14.2133 124.646 13.9093 124.646 13.536V6.144C124.646 5.77067 124.625 5.472 124.582 5.248C124.55 5.01333 124.481 4.832 124.374 4.704C124.268 4.56533 124.113 4.47467 123.91 4.432C123.718 4.37867 123.462 4.34133 123.142 4.32V3.68H128.662V4.32C128.3 4.33067 128.006 4.36267 127.782 4.416C127.569 4.46933 127.404 4.56533 127.286 4.704C127.169 4.84267 127.089 5.03467 127.046 5.28C127.014 5.52533 126.998 5.85067 126.998 6.256V12.96C126.998 13.408 127.041 13.776 127.126 14.064C127.222 14.3413 127.382 14.56 127.606 14.72C127.83 14.8693 128.129 14.976 128.502 15.04C128.876 15.0933 129.34 15.12 129.894 15.12C130.513 15.12 131.03 15.0827 131.446 15.008C131.862 14.9333 132.209 14.7947 132.486 14.592C132.774 14.3787 133.004 14.096 133.174 13.744C133.345 13.392 133.489 12.9333 133.606 12.368H134.246L133.99 16ZM74.008 32.248L76.088 26.92C76.2907 26.3973 76.4507 25.9707 76.568 25.64C76.696 25.3093 76.792 25.0373 76.856 24.824C76.92 24.6107 76.9627 24.44 76.984 24.312C77.0053 24.184 77.016 24.0613 77.016 23.944C77.016 23.688 76.92 23.5227 76.728 23.448C76.536 23.3627 76.152 23.32 75.576 23.32V22.68H80.12V23.32C79.2347 23.32 78.6213 23.752 78.28 24.616L74.072 35.16H72.888L69.064 25.816C68.8507 25.3147 68.6587 24.904 68.488 24.584C68.3173 24.264 68.136 24.0133 67.944 23.832C67.752 23.64 67.5387 23.512 67.304 23.448C67.08 23.3733 66.8133 23.336 66.504 23.336V22.68H72.552V23.336C72.2747 23.3467 72.04 23.3627 71.848 23.384C71.6667 23.4053 71.5227 23.4427 71.416 23.496C71.3093 23.5387 71.2347 23.6027 71.192 23.688C71.1493 23.7627 71.128 23.8587 71.128 23.976C71.128 24.1253 71.1547 24.3013 71.208 24.504C71.2613 24.7067 71.3413 24.952 71.448 25.24L74.008 32.248ZM84.467 28.184C85.1497 28.184 85.699 28.1627 86.115 28.12C86.531 28.0773 86.851 27.992 87.075 27.864C87.3097 27.7253 87.475 27.528 87.571 27.272C87.667 27.016 87.7417 26.6693 87.795 26.232H88.387V30.92H87.795C87.731 30.4933 87.6457 30.152 87.539 29.896C87.4323 29.64 87.2617 29.448 87.027 29.32C86.7923 29.1813 86.4723 29.096 86.067 29.064C85.6723 29.0213 85.139 29 84.467 29V32.296C84.467 32.6373 84.5097 32.9253 84.595 33.16C84.691 33.3947 84.8457 33.5867 85.059 33.736C85.2723 33.8747 85.555 33.976 85.907 34.04C86.259 34.0933 86.691 34.12 87.203 34.12C87.811 34.12 88.323 34.0773 88.739 33.992C89.1657 33.9067 89.5177 33.7573 89.795 33.544C90.0723 33.3307 90.2963 33.048 90.467 32.696C90.6377 32.3333 90.7817 31.88 90.899 31.336H91.539L91.283 35H80.435V34.36C80.787 34.3493 81.075 34.3173 81.299 34.264C81.523 34.2107 81.6937 34.12 81.811 33.992C81.9283 33.864 82.0083 33.6827 82.051 33.448C82.0937 33.2133 82.115 32.9093 82.115 32.536V25.144C82.115 24.7707 82.0937 24.472 82.051 24.248C82.019 24.0133 81.9497 23.832 81.843 23.704C81.7363 23.5653 81.5817 23.4747 81.379 23.432C81.187 23.3787 80.931 23.3413 80.611 23.32V22.68H90.723L90.835 25.816H90.147C90.083 25.368 89.9817 25 89.843 24.712C89.7043 24.4133 89.5123 24.1787 89.267 24.008C89.0217 23.8267 88.7017 23.704 88.307 23.64C87.923 23.5653 87.4483 23.528 86.883 23.528H85.075C84.7977 23.528 84.627 23.5653 84.563 23.64C84.499 23.704 84.467 23.864 84.467 24.12V28.184ZM103.214 25.768C103.214 26.6533 102.958 27.3947 102.446 27.992C101.934 28.5893 101.118 28.9893 99.9978 29.192L103.71 33.448C103.966 33.7467 104.27 33.976 104.622 34.136C104.974 34.2853 105.331 34.36 105.694 34.36V35H101.902L97.9338 30.136C97.6671 29.816 97.4324 29.6027 97.2298 29.496C97.0378 29.3787 96.8564 29.32 96.6858 29.32V32.456C96.6858 32.8507 96.7124 33.176 96.7658 33.432C96.8191 33.6773 96.9258 33.8693 97.0858 34.008C97.2458 34.1467 97.4751 34.2427 97.7738 34.296C98.0831 34.3387 98.4938 34.36 99.0058 34.36V35H92.6538V34.36C93.0058 34.36 93.2884 34.3387 93.5018 34.296C93.7258 34.2427 93.8964 34.152 94.0138 34.024C94.1418 33.8853 94.2271 33.6987 94.2698 33.464C94.3124 33.2187 94.3338 32.9093 94.3338 32.536V25.144C94.3338 24.7707 94.3178 24.472 94.2858 24.248C94.2538 24.0133 94.1844 23.832 94.0778 23.704C93.9711 23.5653 93.8164 23.4747 93.6138 23.432C93.4218 23.3787 93.1604 23.3413 92.8298 23.32V22.68H98.3658C99.9124 22.68 101.107 22.952 101.95 23.496C102.792 24.04 103.214 24.7973 103.214 25.768ZM96.6858 28.36H97.7258C98.7284 28.36 99.4751 28.168 99.9658 27.784C100.467 27.3893 100.718 26.744 100.718 25.848C100.718 25.1653 100.51 24.616 100.094 24.2C99.6778 23.784 99.1018 23.576 98.3658 23.576H96.9738C96.7818 23.576 96.6858 23.6667 96.6858 23.848V28.36ZM106.1 24.696C105.94 24.4187 105.791 24.1893 105.652 24.008C105.524 23.8267 105.391 23.688 105.252 23.592C105.114 23.4853 104.964 23.416 104.804 23.384C104.644 23.3413 104.463 23.32 104.26 23.32V22.68H109.636V23.32C109.188 23.32 108.874 23.3627 108.692 23.448C108.511 23.5333 108.42 23.6613 108.42 23.832C108.42 23.9387 108.452 24.0667 108.516 24.216C108.58 24.3653 108.682 24.568 108.82 24.824L111.108 29.192H111.172L113.188 25.832C113.54 25.2347 113.786 24.792 113.924 24.504C114.063 24.2053 114.132 23.9707 114.132 23.8C114.132 23.6187 114.047 23.496 113.876 23.432C113.716 23.3573 113.412 23.32 112.964 23.32V22.68H116.98V23.32C116.746 23.32 116.532 23.3573 116.34 23.432C116.148 23.5067 115.946 23.656 115.732 23.88C115.53 24.0933 115.295 24.3973 115.028 24.792C114.772 25.176 114.463 25.6827 114.1 26.312L111.764 30.312V31.944C111.764 32.4773 111.786 32.904 111.828 33.224C111.882 33.544 111.967 33.7893 112.084 33.96C112.212 34.12 112.383 34.2267 112.596 34.28C112.81 34.3333 113.087 34.36 113.428 34.36V35H107.732V34.36C108.063 34.36 108.335 34.3333 108.548 34.28C108.772 34.2267 108.948 34.12 109.076 33.96C109.204 33.8 109.29 33.5707 109.332 33.272C109.386 32.9627 109.412 32.5573 109.412 32.056V30.584L106.1 24.696ZM127.258 35.16C126.298 35.16 125.429 35.0213 124.65 34.744C123.882 34.456 123.226 34.0507 122.682 33.528C122.149 32.9947 121.733 32.3547 121.434 31.608C121.146 30.8507 121.002 30.0027 121.002 29.064C121.002 28.0933 121.157 27.208 121.466 26.408C121.786 25.5973 122.229 24.904 122.794 24.328C123.359 23.752 124.037 23.3093 124.826 23C125.615 22.68 126.49 22.52 127.45 22.52C128.111 22.52 128.741 22.6107 129.338 22.792C129.935 22.9733 130.581 23.2667 131.274 23.672L131.578 22.68H132.154V26.728H131.354C131.141 25.7253 130.709 24.9467 130.058 24.392C129.418 23.8373 128.613 23.56 127.642 23.56C126.415 23.56 125.461 24.0347 124.778 24.984C124.106 25.9227 123.77 27.24 123.77 28.936C123.77 30.6 124.101 31.8747 124.762 32.76C125.423 33.6453 126.383 34.088 127.642 34.088C128.549 34.088 129.253 33.8587 129.754 33.4C130.266 32.9307 130.522 32.2853 130.522 31.464C130.522 30.9733 130.394 30.616 130.138 30.392C129.882 30.1573 129.45 30.0133 128.842 29.96V29.32H134.026V29.96C133.503 29.96 133.141 30.0773 132.938 30.312C132.735 30.536 132.634 30.9467 132.634 31.544V33.672C132.399 33.672 132.202 33.6827 132.042 33.704C131.882 33.7147 131.722 33.7467 131.562 33.8C131.413 33.8427 131.242 33.9173 131.05 34.024C130.858 34.1307 130.618 34.2693 130.33 34.44C129.509 34.92 128.485 35.16 127.258 35.16ZM141.818 22.52C142.778 22.52 143.674 22.6853 144.506 23.016C145.338 23.3467 146.058 23.8 146.666 24.376C147.284 24.952 147.77 25.6293 148.122 26.408C148.474 27.1867 148.65 28.0293 148.65 28.936C148.65 29.8 148.468 30.6107 148.106 31.368C147.754 32.1253 147.268 32.7867 146.65 33.352C146.042 33.9067 145.322 34.3493 144.49 34.68C143.658 35 142.767 35.16 141.818 35.16C140.868 35.16 139.978 35 139.146 34.68C138.314 34.3493 137.588 33.9067 136.97 33.352C136.351 32.7867 135.866 32.1253 135.514 31.368C135.162 30.6107 134.986 29.8 134.986 28.936C134.986 28.0293 135.162 27.1867 135.514 26.408C135.866 25.6293 136.346 24.952 136.954 24.376C137.572 23.8 138.298 23.3467 139.13 23.016C139.962 22.6853 140.858 22.52 141.818 22.52ZM141.818 34.12C142.436 34.12 142.996 34.0027 143.498 33.768C143.999 33.5227 144.426 33.1813 144.778 32.744C145.13 32.296 145.396 31.7573 145.578 31.128C145.77 30.488 145.866 29.7733 145.866 28.984C145.866 28.152 145.77 27.4053 145.578 26.744C145.396 26.072 145.13 25.5013 144.778 25.032C144.426 24.552 143.999 24.1893 143.498 23.944C142.996 23.688 142.436 23.56 141.818 23.56C141.188 23.56 140.623 23.688 140.122 23.944C139.631 24.1893 139.21 24.552 138.858 25.032C138.506 25.5013 138.234 26.072 138.042 26.744C137.86 27.4053 137.77 28.152 137.77 28.984C137.77 29.7733 137.86 30.488 138.042 31.128C138.234 31.7573 138.506 32.296 138.858 32.744C139.21 33.1813 139.631 33.5227 140.122 33.768C140.623 34.0027 141.188 34.12 141.818 34.12ZM156.911 22.52C157.871 22.52 158.767 22.6853 159.599 23.016C160.431 23.3467 161.151 23.8 161.759 24.376C162.378 24.952 162.863 25.6293 163.215 26.408C163.567 27.1867 163.743 28.0293 163.743 28.936C163.743 29.8 163.562 30.6107 163.199 31.368C162.847 32.1253 162.362 32.7867 161.743 33.352C161.135 33.9067 160.415 34.3493 159.583 34.68C158.751 35 157.861 35.16 156.911 35.16C155.962 35.16 155.071 35 154.239 34.68C153.407 34.3493 152.682 33.9067 152.063 33.352C151.445 32.7867 150.959 32.1253 150.607 31.368C150.255 30.6107 150.079 29.8 150.079 28.936C150.079 28.0293 150.255 27.1867 150.607 26.408C150.959 25.6293 151.439 24.952 152.047 24.376C152.666 23.8 153.391 23.3467 154.223 23.016C155.055 22.6853 155.951 22.52 156.911 22.52ZM156.911 34.12C157.53 34.12 158.09 34.0027 158.591 33.768C159.093 33.5227 159.519 33.1813 159.871 32.744C160.223 32.296 160.49 31.7573 160.671 31.128C160.863 30.488 160.959 29.7733 160.959 28.984C160.959 28.152 160.863 27.4053 160.671 26.744C160.49 26.072 160.223 25.5013 159.871 25.032C159.519 24.552 159.093 24.1893 158.591 23.944C158.09 23.688 157.53 23.56 156.911 23.56C156.282 23.56 155.717 23.688 155.215 23.944C154.725 24.1893 154.303 24.552 153.951 25.032C153.599 25.5013 153.327 26.072 153.135 26.744C152.954 27.4053 152.863 28.152 152.863 28.984C152.863 29.7733 152.954 30.488 153.135 31.128C153.327 31.7573 153.599 32.296 153.951 32.744C154.303 33.1813 154.725 33.5227 155.215 33.768C155.717 34.0027 156.282 34.12 156.911 34.12ZM164.826 35V34.36C165.178 34.3493 165.46 34.3227 165.674 34.28C165.898 34.2267 166.068 34.136 166.186 34.008C166.314 33.8693 166.399 33.688 166.442 33.464C166.484 33.2293 166.506 32.92 166.506 32.536V25.144C166.506 24.7707 166.49 24.472 166.458 24.248C166.426 24.0133 166.356 23.832 166.25 23.704C166.143 23.5653 165.994 23.4747 165.802 23.432C165.62 23.3787 165.38 23.3413 165.082 23.32V22.68H171.162C172.186 22.68 173.13 22.84 173.994 23.16C174.858 23.48 175.604 23.9227 176.234 24.488C176.863 25.0533 177.354 25.7253 177.706 26.504C178.058 27.2827 178.234 28.1307 178.234 29.048C178.234 29.9227 178.068 30.728 177.738 31.464C177.407 32.1893 176.943 32.8133 176.346 33.336C175.759 33.8587 175.05 34.2693 174.218 34.568C173.396 34.856 172.49 35 171.498 35H164.826ZM169.13 23.656C168.948 23.656 168.858 23.7467 168.858 23.928V32.2C168.858 32.8187 169.05 33.2773 169.434 33.576C169.818 33.8747 170.41 34.024 171.21 34.024C172.607 34.024 173.679 33.6027 174.426 32.76C175.183 31.9173 175.562 30.6907 175.562 29.08C175.562 28.2267 175.46 27.464 175.258 26.792C175.055 26.12 174.762 25.5547 174.378 25.096C173.994 24.6267 173.524 24.2693 172.97 24.024C172.426 23.7787 171.812 23.656 171.13 23.656H169.13Z" fill="#223441"/>
<path d="M10.0355 18.8454L16.1683 13.176C17.813 11.6814 19.9873 10.831 22.3011 10.831C24.5312 10.831 26.7334 11.6041 28.4339 13.176L34.5667 18.8454C34.7897 19.0515 34.7897 19.2577 34.5667 19.4639L33.0056 20.907C32.7826 21.1131 32.5596 21.1131 32.3365 20.907C30.3016 19.0258 28.2387 17.1188 26.2038 15.2376C25.0051 14.1037 23.3604 13.6141 21.7714 13.743C20.517 13.846 19.2904 14.3357 18.3426 15.2376L14.4399 18.8454L23.7228 27.4267C26.2037 29.7203 29.4374 30.8541 32.6711 30.8541C36.0441 30.8541 39.2499 29.6172 41.6472 27.4267L50.5955 19.1288L35.5423 5.21313C35.2914 4.9812 35.2914 4.80081 35.5144 4.59465L37.0755 3.15154C37.2985 2.94538 37.5215 2.94538 37.7445 3.17731C43.4871 8.4859 49.2296 13.7945 55 19.1288L43.8216 29.4626C40.8667 32.1942 36.8804 33.7404 32.6989 33.7404C28.5175 33.7404 24.559 32.2972 21.5205 29.4883L10.0355 18.8454ZM44.9645 19.1288L38.8317 24.7982C37.2149 26.2929 35.0127 27.1433 32.6989 27.1433C30.4688 27.1433 28.2666 26.3702 26.5661 24.7982L20.4333 19.1288C20.2103 18.9227 20.2103 18.7165 20.4333 18.5104L21.9665 17.0673C22.1896 16.8611 22.4126 16.8611 22.6356 17.0673C24.6706 18.9485 26.7334 20.8554 28.7684 22.7366C29.9671 23.8705 31.6118 24.3601 33.2007 24.2313C34.4551 24.1282 35.6817 23.6386 36.6295 22.7366L40.5601 19.1031L31.2772 10.5217C28.7962 8.25397 25.5347 7.1201 22.3011 7.1201C18.928 7.1201 15.7222 8.35705 13.3249 10.5475L4.37658 18.8454L19.4577 32.7869C19.7086 33.0188 19.7086 33.1992 19.4856 33.4053L17.9524 34.8485C17.7293 35.0546 17.5063 35.0546 17.2833 34.8227C11.485 29.4883 5.74252 24.1797 0 18.8712L11.1784 8.53744C14.1333 5.8316 18.0917 4.28541 22.3011 4.28541C26.4825 4.28541 30.441 5.72853 33.4795 8.53744L44.9645 19.1288Z" fill="#223441"/>
</svg>
