<svg width="16" height="13" viewBox="0 0 16 13" fill="none" xmlns="http://www.w3.org/2000/svg">
<path d="M8.0125 12.3849C8.59191 12.3849 9.06162 11.9152 9.06162 11.3357C9.06162 10.7563 8.59191 10.2866 8.0125 10.2866C7.43309 10.2866 6.96338 10.7563 6.96338 11.3357C6.96338 11.9152 7.43309 12.3849 8.0125 12.3849Z" fill="#C4C4C4"/>
<path d="M5.55599 9.49325C5.35128 9.49325 5.14657 9.41649 4.99304 9.23737C4.71157 8.93031 4.71157 8.44413 5.01863 8.16266C5.83746 7.39501 6.88658 6.9856 7.98688 6.9856C9.08717 6.9856 10.1363 7.39501 10.9295 8.13707C11.2366 8.41854 11.2622 8.90472 10.9807 9.21178C10.6992 9.51884 10.2131 9.54443 9.906 9.26296C9.39423 8.77678 8.70335 8.52089 7.98688 8.52089C7.2704 8.52089 6.57952 8.80237 6.06775 9.28854C5.93981 9.41649 5.73511 9.49325 5.55599 9.49325Z" fill="#C4C4C4"/>
<path d="M3.0483 7.01117C2.84359 7.01117 2.63889 6.9344 2.48536 6.78087C2.1783 6.47381 2.20388 5.98764 2.51094 5.70616C3.99507 4.27322 5.93978 3.47998 7.98684 3.47998C10.0339 3.47998 11.9786 4.27322 13.4627 5.70616C13.7698 6.01322 13.7698 6.4994 13.4883 6.78087C13.2069 7.06235 12.6951 7.08793 12.4136 6.80646C11.2366 5.65499 9.65008 5.01528 8.01243 5.01528C6.34919 5.01528 4.7883 5.65499 3.61124 6.80646C3.43212 6.9344 3.25301 7.01117 3.0483 7.01117Z" fill="#C4C4C4"/>
<path d="M0.770952 4.3756C0.566246 4.3756 0.361539 4.29884 0.208009 4.11972C-0.073462 3.81266 -0.0734621 3.32648 0.233598 3.04501C2.33184 1.07471 5.09538 0 7.98686 0C10.8016 0 13.5139 1.04912 15.5866 2.91707C15.8936 3.19854 15.9192 3.68472 15.6378 3.99178C15.3563 4.29884 14.8701 4.32443 14.5631 4.04295C12.7463 2.4053 10.4177 1.50971 7.98686 1.50971C5.4792 1.50971 3.09949 2.45648 1.28272 4.14531C1.15478 4.29884 0.95007 4.3756 0.770952 4.3756Z" fill="#C4C4C4"/>
</svg>
